HIERARCHY
ROOT Hips
{
	OFFSET 0.00 0.00 0.00
	CHANNELS 6 Xposition Yposition Zposition Xrotation Yrotation Zrotation
	JOINT LeftUpLeg
	{
		OFFSET 2.83210 0.00000 0.00000
		CHANNELS 3 Xrotation Yrotation Zrotation
		JOINT LeftLeg
		{
			OFFSET 0.00000 -16.27150 0.00000
			CHANNELS 3 Xrotation Yrotation Zrotation
			JOINT LeftFoot
			{
				OFFSET 0.00000 -14.95190 0.00000
				CHANNELS 3 Xrotation Yrotation Zrotation
				JOINT LeftToeBase
				{
					OFFSET 0.00000 -1.07991 4.03030
					CHANNELS 3 Xrotation Yrotation Zrotation
					End Site
					{
						OFFSET 0.00000 0.00000 2.95275
					}
				}
			}
		}
	}
	JOINT RightUpLeg
	{
		OFFSET -2.83210 0.00000 0.00000
		CHANNELS 3 Xrotation Yrotation Zrotation
		JOINT RightLeg
		{
			OFFSET 0.00000 -16.27150 0.00000
			CHANNELS 3 Xrotation Yrotation Zrotation
			JOINT RightFoot
			{
				OFFSET 0.00000 -14.95190 0.00000
				CHANNELS 3 Xrotation Yrotation Zrotation
				JOINT RightToeBase
				{
					OFFSET 0.00000 -1.07991 4.03030
					CHANNELS 3 Xrotation Yrotation Zrotation
					End Site
					{
						OFFSET 0.00000 0.00000 2.95275
					}
				}
			}
		}
	}
	JOINT Spine
	{
		OFFSET 0.00000 0.03937 0.00000
		CHANNELS 3 Xrotation Yrotation Zrotation
		JOINT Spine1
		{
			OFFSET 0.00000 8.01054 0.00000
			CHANNELS 3 Xrotation Yrotation Zrotation
			JOINT Neck
			{
				OFFSET 0.00000 8.21888 0.00000
				CHANNELS 3 Xrotation Yrotation Zrotation
				JOINT Head
				{
					OFFSET 0.00000 3.25664 0.00000
					CHANNELS 3 Xrotation Yrotation Zrotation
					End Site
					{
						OFFSET 0.00000 4.52755 0.00000
					}
				}
			}
			JOINT LeftShoulder
			{
				OFFSET 0.00000 8.21888 0.00000
				CHANNELS 3 Xrotation Yrotation Zrotation
				JOINT LeftArm
				{
					OFFSET 6.52904 -0.00002 0.00000
					CHANNELS 3 Xrotation Yrotation Zrotation
					JOINT LeftForeArm
					{
						OFFSET 10.44840 -0.00004 0.00000
						CHANNELS 3 Xrotation Yrotation Zrotation
						JOINT LeftHand
						{
							OFFSET 8.94727 -0.00003 0.00000
							CHANNELS 3 Xrotation Yrotation Zrotation
							JOINT LeftHandThumb
							{
								OFFSET 0.00000 0.00000 0.00000
								CHANNELS 3 Xrotation Yrotation Zrotation
								End Site
								{
									OFFSET 0.00000 0.00000 3.93700
								}
							}
							JOINT L_Wrist_End
							{
								OFFSET 3.93700 -0.00001 0.00000
								CHANNELS 3 Xrotation Yrotation Zrotation
							}
						}
					}
				}
			}
			JOINT RightShoulder
			{
				OFFSET 0.00000 8.21888 0.00000
				CHANNELS 3 Xrotation Yrotation Zrotation
				JOINT RightArm
				{
					OFFSET -6.52904 -0.00002 0.00000
					CHANNELS 3 Xrotation Yrotation Zrotation
					JOINT RightForeArm
					{
						OFFSET -10.44840 -0.00004 0.00000
						CHANNELS 3 Xrotation Yrotation Zrotation
						JOINT RightHand
						{
							OFFSET -8.94727 -0.00003 0.00000
							CHANNELS 3 Xrotation Yrotation Zrotation
							JOINT RightHandThumb
							{
								OFFSET 0.00000 0.00000 0.00000
								CHANNELS 3 Xrotation Yrotation Zrotation
								End Site
								{
									OFFSET 0.00000 0.00000 3.93700
								}
							}
							JOINT R_Wrist_End
							{
								OFFSET -5.39369 -0.00002 0.00000
								CHANNELS 3 Xrotation Yrotation Zrotation
							}
						}
					}
				}
			}
		}
	}
}
MOTION
Frames: 19
Frame Time: 0.008333
 90.4930 33.3444 -11.1873 16.6515 12.6035 2.8043 -24.7320 3.8952 -1.0907 22.0622 -0.0000 0.0000 -5.2681 15.8063 -19.0249 10.3130 0.0000 -0.0000 -27.6407 -13.0383 -3.4955 15.1176 -0.0000 -0.0000 -7.1547 -22.3593 25.0436 19.5196 0.0000 0.0000 -4.0184 7.9202 -6.8128 14.2015 -12.2662 4.8810 -18.9213 -8.0770 -5.0418 -32.3569 -56.3706 -19.4326 13.6527 10.1608 5.0580 -30.9064 -7.0926 -60.2895 -0.0000 -5.2657 -0.0000 -19.4394 -0.8726 -27.3260 -0.0000 -0.0000 0.0000 -0.0000 -0.0000 0.0000 17.7851 -11.9982 0.8289 -2.0318 79.7407 27.5870 -0.0001 15.1126 0.0000 12.6386 -2.5779 -13.2646 -0.0000 -0.0000 -0.0000 -0.0000 -0.0000 -0.0000
 90.6112 33.3433 -11.2608 16.6897 11.3348 3.0140 -24.7938 4.7937 -1.3917 21.8597 0.0000 0.0000 -5.1544 16.4628 -17.0270 10.8180 0.0000 0.0000 -27.8338 -13.1734 -3.5821 15.1122 -0.0000 0.0000 -6.9301 -20.9136 26.2673 21.2559 -0.0000 0.0000 -3.9984 8.0053 -6.8303 14.0539 -12.1329 4.9262 -18.7278 -8.1520 -4.9269 -32.8617 -56.3096 -19.9270 13.5064 10.5404 5.1598 -31.1477 -5.5095 -59.8846 -0.0000 -4.9995 -0.0000 -18.6915 -0.6383 -26.3552 -0.0000 0.0000 -0.0000 -0.0000 0.0000 -0.0000 17.4144 -11.7475 0.3863 0.0879 80.9318 25.0615 -0.0001 14.9604 0.0000 14.7735 -3.7932 -12.7945 -0.0000 -0.0000 0.0000 -0.0000 -0.0000 0.0000
 90.7246 33.3391 -11.3370 16.7404 10.0176 3.1710 -24.8572 6.0608 -1.5428 21.6572 -0.0000 0.0000 -4.8859 17.6835 -14.5680 15.0926 0.0000 -0.0000 -28.0032 -13.2133 -3.5780 15.0483 0.0000 0.0000 -6.6785 -19.5446 27.7015 20.5224 0.0000 0.0000 -3.9832 8.0948 -6.8697 13.9457 -11.9603 5.0886 -18.7021 -8.2108 -4.9350 -33.0328 -56.2315 -20.2102 13.1492 10.8221 5.3193 -31.1905 -3.8023 -59.5347 -0.0000 -4.7664 -0.0000 -17.8435 -0.4166 -25.1538 0.0000 0.0000 0.0000 0.0000 0.0000 0.0000 17.2523 -11.5475 0.0995 6.2670 82.2193 18.1819 -0.0001 14.8656 0.0000 16.0114 -4.5742 -12.7507 0.0000 0.0000 -0.0000 0.0000 0.0000 -0.0000
 90.8414 33.3318 -11.4103 16.7447 8.7197 3.3263 -24.7997 7.2900 -1.6607 21.3397 0.0000 0.0000 -4.5139 19.4452 -12.2728 12.6606 0.0000 0.0000 -28.1886 -13.3757 -3.6142 15.1180 -0.0000 0.0000 -6.5001 -18.0553 29.4027 20.4636 -0.0000 -0.0000 -4.0495 8.1669 -6.9523 14.0634 -11.7794 5.3589 -18.4037 -8.1996 -4.7412 -33.9273 -56.1092 -20.8777 12.9262 11.1747 5.4031 -31.4463 -2.1509 -59.1902 -0.0000 -4.5955 -0.0000 -17.2055 -0.2192 -23.8938 -0.0000 -0.0000 0.0000 -0.0000 -0.0000 0.0000 16.9784 -11.2151 -0.3017 12.2343 83.1626 11.6019 -0.0001 14.8340 0.0000 17.1230 -5.1176 -12.8982 -0.0000 -0.0000 -0.0000 -0.0000 -0.0000 -0.0000
 90.9519 33.3214 -11.4858 16.7320 7.3974 3.4421 -24.7002 8.7859 -1.6340 21.0475 -0.0000 0.0000 -4.5947 20.4965 -10.7742 14.5455 0.0000 -0.0000 -28.3667 -13.6000 -3.5930 15.2002 -0.0000 0.0000 -6.3427 -16.5233 31.0302 20.2630 -0.0000 0.0000 -3.9682 8.2720 -6.9987 13.9939 -11.5745 5.5572 -18.2286 -8.2145 -4.6170 -34.4292 -56.0366 -21.3220 12.8473 11.5512 5.4995 -31.8514 -0.5168 -58.8804 -0.0000 -4.4701 -0.0000 -16.5749 -0.0777 -22.5078 0.0000 -0.0000 0.0000 0.0000 -0.0000 0.0000 16.7454 -10.9151 -0.6111 17.8096 83.8877 5.4890 -0.0001 14.9226 0.0000 18.1026 -5.5622 -13.0298 -0.0000 0.0000 -0.0000 -0.0000 0.0000 -0.0000
 91.0602 33.3108 -11.5691 16.7608 6.0345 3.5661 -24.5577 9.9655 -1.6401 20.6987 -0.0000 0.0000 -5.1936 21.4367 -9.2271 15.8853 0.0000 0.0000 -28.5762 -13.6555 -3.5488 15.2724 -0.0000 0.0000 -6.1956 -15.0488 32.5148 19.6203 -0.0000 0.0000 -3.9583 8.3758 -7.0787 14.0206 -11.3650 5.7945 -18.1272 -8.2109 -4.6182 -34.6278 -56.0137 -21.4725 12.4871 11.7659 5.7328 -31.9425 1.3488 -58.6046 -0.0000 -4.4153 -0.0000 -15.9192 -0.0743 -21.0367 0.0000 -0.0000 -0.0000 0.0000 -0.0000 -0.0000 16.6118 -10.5760 -0.8758 24.8187 84.5456 -2.2071 -0.0001 14.9819 0.0000 18.9895 -6.0551 -13.3086 -0.0000 0.0000 -0.0000 -0.0000 0.0000 -0.0000
 91.1738 33.2988 -11.6461 16.7481 4.7375 3.6985 -24.2947 11.1219 -1.6399 20.2748 -0.0000 0.0000 -5.8675 22.0869 -7.6801 16.2046 -0.0000 0.0000 -28.8038 -13.8660 -3.5885 15.4742 -0.0000 0.0000 -6.1422 -13.4866 34.7226 19.4464 -0.0000 0.0000 -3.8813 8.4551 -7.1678 14.0329 -11.1630 6.0482 -17.9218 -8.1922 -4.5246 -35.2055 -55.9715 -21.8480 12.3851 12.0888 5.7921 -32.2431 2.9214 -58.2717 -0.0000 -4.4173 -0.0000 -15.4019 -0.1043 -19.6311 -0.0000 0.0000 -0.0000 -0.0000 0.0000 -0.0000 16.5073 -10.2963 -1.1027 31.2158 85.0806 -9.2799 -0.0001 15.0946 0.0000 19.7998 -6.3290 -13.5982 0.0000 0.0000 -0.0000 0.0000 0.0000 -0.0000
 91.2940 33.2915 -11.7275 16.7647 3.9484 3.6796 -24.1078 11.5804 -1.7225 19.8287 -0.0000 0.0000 -6.5826 22.8937 -5.9917 15.7762 -0.0000 0.0000 -28.9837 -14.6879 -3.7725 15.4941 0.0000 0.0000 -6.1392 -11.9902 38.2187 20.8468 -0.0000 -0.0000 -3.8565 8.4364 -7.0660 14.0956 -11.1325 6.2119 -17.8786 -8.2668 -4.5259 -35.3321 -56.0322 -21.8964 12.5494 12.4562 5.8793 -32.8634 3.7636 -58.0904 -0.0000 -4.0258 -0.0000 -15.4414 -0.9884 -18.1277 0.0000 0.0000 -0.0000 0.0000 0.0000 -0.0000 16.0595 -10.1464 -1.1455 31.1248 85.5294 -9.4811 -0.0001 15.1607 0.0000 22.1978 -6.6254 -13.8821 -0.0000 0.0000 -0.0000 -0.0000 0.0000 -0.0000
 91.4007 33.2703 -11.8008 16.7586 2.2476 3.9310 -23.6326 13.3284 -1.5419 19.1074 0.0000 0.0000 -7.0989 22.8971 -5.6401 17.1377 0.0000 0.0000 -29.3764 -14.3688 -3.7669 16.0745 -0.0000 0.0000 -6.1710 -10.1559 39.6385 19.2111 -0.0000 0.0000 -3.7769 8.5976 -7.3092 14.1174 -10.8503 6.4450 -17.6065 -8.1650 -4.3270 -35.9355 -56.0236 -22.2622 12.2096 12.7596 6.1178 -32.8298 6.1207 -57.8196 -0.0000 -4.6650 -0.0000 -14.1245 -0.1652 -16.9026 0.0000 -0.0000 0.0000 0.0000 -0.0000 0.0000 16.3835 -9.6754 -1.3292 42.2692 85.8317 -21.6776 -0.0001 15.5671 0.0000 21.6978 -6.8984 -14.2502 0.0000 0.0000 -0.0000 0.0000 0.0000 -0.0000
 91.5256 33.2528 -11.8831 16.8007 1.0766 4.1254 -23.2213 13.9780 -1.6527 18.3144 -0.0000 0.0000 -7.5361 23.3710 -5.2286 17.7940 -0.0000 0.0000 -29.8362 -14.6347 -4.0483 16.5904 -0.0000 0.0000 -6.3269 -8.0420 42.2500 19.0577 0.0000 -0.0000 -3.7405 8.6387 -7.4477 14.1730 -10.6996 6.6753 -17.2601 -8.1947 -4.4292 -36.2899 -56.1907 -22.1205 12.1124 12.9807 6.2631 -32.9542 7.6665 -57.5986 -0.0000 -4.9522 -0.0000 -13.4678 -0.1494 -15.5180 -0.0000 -0.0000 0.0000 -0.0000 -0.0000 0.0000 16.2417 -9.4165 -1.5466 46.7626 86.1981 -26.7277 -0.0001 15.9504 0.0000 22.3602 -7.2479 -14.2760 -0.0000 0.0000 0.0000 -0.0000 0.0000 0.0000
 91.6543 33.2338 -11.9783 16.9515 -0.0666 4.3556 -22.9223 14.3169 -1.8396 17.5104 -0.0000 0.0000 -7.8965 24.0260 -4.8455 17.9916 0.0000 0.0000 -30.5102 -14.9123 -4.3958 17.2172 -0.0000 0.0000 -6.5635 -5.9716 44.7003 17.8977 -0.0000 0.0000 -3.7600 8.6678 -7.5820 14.2135 -10.5824 6.8424 -17.1575 -8.2092 -4.5917 -36.2297 -56.4071 -21.8396 11.8705 13.1041 6.5401 -32.7903 9.1960 -57.4747 -0.0000 -5.2978 -0.0000 -12.7809 -0.1222 -14.1119 0.0000 -0.0000 0.0000 0.0000 -0.0000 0.0000 16.2953 -9.1857 -1.5959 57.6095 86.2509 -38.3757 -0.0001 16.2880 0.0000 22.7444 -7.2941 -14.5165 -0.0000 -0.0000 -0.0000 -0.0000 -0.0000 -0.0000
 91.7809 33.2175 -12.0815 17.1654 -1.1151 4.6120 -22.8093 14.4488 -2.0710 16.8880 -0.0000 0.0000 -8.1240 24.7502 -4.6233 18.0681 -0.0000 0.0000 -31.2798 -15.1728 -4.8173 17.8542 -0.0000 0.0000 -6.8985 -3.8976 47.3430 17.3361 -0.0000 0.0000 -3.7889 8.6617 -7.7608 14.2404 -10.5002 7.0020 -16.9973 -8.1906 -4.6631 -36.3877 -56.6379 -21.6902 11.6372 13.1952 6.8197 -32.4860 10.4806 -57.3777 -0.0000 -5.6712 -0.0000 -12.2513 -0.1144 -12.7111 0.0000 -0.0000 -0.0000 0.0000 -0.0000 -0.0000 16.4666 -8.9376 -1.5659 68.6813 86.0466 -50.3650 -0.0001 16.6070 0.0000 23.1131 -7.2302 -14.7196 -0.0000 -0.0000 0.0000 -0.0000 -0.0000 0.0000
 91.9299 33.2050 -12.1773 17.3316 -2.0687 5.0422 -22.6637 14.3219 -2.5762 16.3350 0.0000 0.0000 -8.2179 25.7429 -4.3766 18.1835 -0.0000 -0.0000 -32.1877 -15.4870 -5.5445 18.7112 -0.0000 0.0000 -7.3179 -1.8081 49.7625 16.6203 -0.0000 0.0000 -3.8340 8.6391 -7.9913 14.4031 -10.4507 7.0938 -16.8954 -8.1719 -4.6770 -36.7262 -56.8420 -21.7223 11.4601 13.2597 6.9710 -32.1910 11.4616 -57.2546 -0.0000 -5.9738 -0.0000 -11.7574 -0.1599 -11.3843 -0.0000 -0.0000 0.0000 -0.0000 -0.0000 0.0000 16.5404 -8.7035 -1.5651 77.8982 85.6700 -60.4162 -0.0001 16.9144 0.0000 23.5070 -7.1052 -14.7839 0.0000 -0.0000 0.0000 0.0000 -0.0000 0.0000
 92.0919 33.1961 -12.2648 17.4074 -2.8960 5.5928 -22.5179 14.1693 -3.2392 15.9590 -0.0000 0.0000 -8.2533 26.7624 -4.0584 18.5444 -0.0000 0.0000 -33.1332 -15.6576 -6.5235 19.7306 0.0000 0.0000 -7.6031 0.3006 51.7783 15.4469 -0.0000 0.0000 -3.8043 8.5705 -8.2324 14.6004 -10.4687 7.0522 -16.6991 -8.1303 -4.5480 -37.4622 -57.0426 -22.0263 11.5948 13.4960 6.9202 -32.1821 11.8807 -57.1183 -0.0000 -6.1095 -0.0000 -11.5393 -0.3300 -10.1307 -0.0000 -0.0000 -0.0000 -0.0000 -0.0000 -0.0000 17.6772 -8.5030 -1.0636 85.9455 84.4226 -70.4614 -0.0001 17.2661 0.0000 23.7936 -6.9521 -14.9041 0.0000 0.0000 -0.0000 0.0000 0.0000 -0.0000
 92.2493 33.1891 -12.3470 17.5414 -3.6038 6.0998 -22.5112 13.8879 -3.8840 15.7059 -0.0000 0.0000 -8.3231 27.8093 -3.6898 18.7609 0.0000 -0.0000 -34.0765 -15.3837 -7.5505 20.7486 -0.0000 0.0000 -7.8813 2.4172 54.7181 15.9185 -0.0000 -0.0000 -3.9307 8.5176 -8.4330 14.9540 -10.4944 7.0342 -16.7554 -8.1761 -4.7195 -37.4613 -57.4309 -21.7519 11.5826 13.5173 6.9642 -32.1008 12.4532 -56.9903 -0.0000 -6.2078 -0.0000 -11.1463 -0.5581 -9.0398 -0.0000 -0.0000 -0.0000 -0.0000 -0.0000 -0.0000 17.6818 -8.3253 -1.0578 91.0072 83.8597 -76.2364 -0.0001 17.4331 0.0000 24.0552 -6.7423 -14.8243 0.0000 0.0000 -0.0000 0.0000 0.0000 -0.0000
 92.4080 33.1812 -12.4194 17.5598 -4.1673 6.5955 -22.3955 13.3187 -4.6132 15.4212 -0.0000 0.0000 -8.4862 29.0077 -3.0185 18.9431 -0.0000 0.0000 -35.0026 -15.3086 -8.5775 21.9342 0.0000 -0.0000 -8.0624 4.3739 55.7270 14.6435 -0.0000 -0.0000 -3.9893 8.4514 -8.5326 15.2833 -10.5849 6.8304 -16.4553 -8.2650 -4.7811 -37.9105 -57.9243 -21.5707 11.8309 13.6258 7.0277 -32.5079 12.9167 -56.8957 -0.0000 -6.0383 -0.0000 -10.5610 -0.8223 -8.1797 -0.0000 -0.0000 0.0000 -0.0000 -0.0000 0.0000 18.3737 -8.1299 -0.7901 93.7091 82.9536 -80.2574 -0.0001 17.6452 0.0000 24.0279 -6.5239 -14.8130 0.0000 -0.0000 0.0000 0.0000 -0.0000 0.0000
 92.5479 33.1729 -12.4969 17.5839 -4.8035 6.9915 -22.3415 13.0729 -5.1369 15.2335 -0.0000 0.0000 -8.6928 29.9397 -2.4727 19.2138 -0.0000 -0.0000 -35.8034 -14.7421 -9.2984 23.1169 0.0000 0.0000 -8.1384 5.5895 56.5800 13.3877 -0.0000 0.0000 -4.0528 8.5105 -8.5763 15.6182 -10.5673 6.5994 -15.8909 -8.4504 -4.8494 -38.6485 -58.5473 -21.3227 11.9643 13.6652 7.2529 -32.7773 13.2388 -56.9276 -0.0000 -5.9172 -0.0000 -9.9609 -0.9765 -7.3949 0.0000 -0.0000 0.0000 0.0000 -0.0000 0.0000 18.7927 -7.9752 -0.6630 94.9059 82.2553 -82.3830 -0.0001 18.0013 0.0000 23.9790 -6.5711 -14.6074 -0.0000 -0.0000 0.0000 -0.0000 -0.0000 0.0000
 92.6652 33.1645 -12.5661 17.5809 -5.5027 7.2830 -22.2838 13.4716 -5.4195 15.1970 0.0000 0.0000 -8.9560 30.3138 -1.8408 19.1216 0.0000 -0.0000 -36.5131 -14.0526 -9.7547 24.4653 0.0000 0.0000 -8.3681 5.8545 56.0058 13.6447 -0.0000 -0.0000 -4.2134 8.6214 -8.6851 16.1500 -10.4206 6.5953 -15.4668 -8.6388 -4.9146 -39.4343 -59.1186 -21.2475 11.8403 13.5672 7.5070 -32.6203 13.4353 -57.0200 -0.0000 -5.9583 -0.0000 -9.5500 -1.0326 -6.6842 -0.0000 -0.0000 0.0000 -0.0000 -0.0000 0.0000 18.7001 -7.8932 -0.8015 97.3793 81.8501 -85.2375 -0.0001 18.0998 0.0000 23.9278 -6.5780 -14.3201 0.0000 -0.0000 -0.0000 0.0000 -0.0000 -0.0000
 92.7680 33.1615 -12.6343 17.5212 -6.1970 7.4544 -22.1524 14.0999 -5.5341 15.1006 0.0000 0.0000 -9.0722 30.3839 -1.5487 19.3383 -0.0000 0.0000 -37.0884 -13.1507 -9.9826 26.2386 -0.0000 0.0000 -8.4674 4.7994 55.1004 13.5449 0.0000 0.0000 -4.3166 8.7344 -8.7278 16.6231 -10.2710 6.5771 -14.7721 -8.8279 -4.8947 -40.5343 -59.6999 -21.2340 11.8992 13.6199 7.6843 -32.8868 13.6234 -57.1107 -0.0000 -5.8799 -0.0000 -9.0425 -1.1015 -6.1479 0.0000 0.0000 -0.0000 0.0000 0.0000 -0.0000 19.1078 -7.6794 -0.8053 98.0253 81.2266 -86.6831 -0.0001 18.2529 0.0000 23.8462 -6.6046 -13.9799 -0.0000 0.0000 -0.0000 -0.0000 0.0000 -0.0000
